HIERARCHY
ROOT Hips
{
	OFFSET 0.000000 83.214638 0.000000
	CHANNELS 6 Xposition Yposition Zposition Xrotation Yrotation Zrotation
	JOINT Pelvis
	{
		OFFSET 0.000000 0.000000 0.000000
		CHANNELS 3 Xrotation Yrotation Zrotation
		JOINT LeftUpLeg
		{
			OFFSET 8.479700 -4.795502 -0.379100
			CHANNELS 3 Xrotation Yrotation Zrotation
			JOINT LeftLeg
			{
				OFFSET 0.024144 -32.555107 0.112900
				CHANNELS 3 Xrotation Yrotation Zrotation
				JOINT LeftFoot
				{
					OFFSET -0.024144 -32.638630 -3.012600
					CHANNELS 3 Xrotation Yrotation Zrotation
					JOINT LeftToeBase
					{
						OFFSET 0.970200 -13.225400 11.864200
						CHANNELS 3 Xrotation Yrotation Zrotation
						End Site
						{
							OFFSET 0.000000 12.319262 0.000000
						}
					}
					JOINT LFootTongue
					{
						OFFSET 1.142400 -1.059800 6.665200
						CHANNELS 3 Xrotation Yrotation Zrotation
						End Site
						{
							OFFSET 0.000000 12.319262 0.000000
						}
					}
				}
				JOINT LeftPantLeg
				{
					OFFSET 0.918482 -16.533964 -2.284700
					CHANNELS 3 Xrotation Yrotation Zrotation
					End Site
					{
						OFFSET 0.350399 24.744368 0.000000
					}
				}
			}
		}
		JOINT RightUpLeg
		{
			OFFSET -8.479700 -4.795502 -0.379100
			CHANNELS 3 Xrotation Yrotation Zrotation
			JOINT RightLeg
			{
				OFFSET -0.023144 -32.555092 0.112900
				CHANNELS 3 Xrotation Yrotation Zrotation
				JOINT RightFoot
				{
					OFFSET 0.023144 -32.638641 -3.012700
					CHANNELS 3 Xrotation Yrotation Zrotation
					JOINT RightToeBase
					{
						OFFSET -0.970200 -13.225400 11.864200
						CHANNELS 3 Xrotation Yrotation Zrotation
						End Site
						{
							OFFSET 0.000000 12.319244 0.000000
						}
					}
					JOINT RFootTongue
					{
						OFFSET -1.142200 -1.059800 6.665200
						CHANNELS 3 Xrotation Yrotation Zrotation
						End Site
						{
							OFFSET 0.000000 12.319243 0.000000
						}
					}
				}
				JOINT RightPantLeg
				{
					OFFSET -0.919482 -16.533978 -2.284800
					CHANNELS 3 Xrotation Yrotation Zrotation
					End Site
					{
						OFFSET -0.350400 24.744419 0.000000
					}
				}
			}
		}
	}
	JOINT Spine
	{
		OFFSET 0.000000 7.722000 1.166200
		CHANNELS 3 Xrotation Yrotation Zrotation
		JOINT Spine1
		{
			OFFSET 0.000000 12.024101 0.248800
			CHANNELS 3 Xrotation Yrotation Zrotation
			JOINT Spine2
			{
				OFFSET 0.000000 11.502998 -0.491200
				CHANNELS 3 Xrotation Yrotation Zrotation
				JOINT Neck
				{
					OFFSET 0.000000 18.430702 -3.123100
					CHANNELS 3 Xrotation Yrotation Zrotation
					JOINT Head
					{
						OFFSET 0.000000 9.051102 1.034000
						CHANNELS 3 Xrotation Yrotation Zrotation
						JOINT HairB
						{
							OFFSET 0.208400 24.786102 24.822300
							CHANNELS 3 Xrotation Yrotation Zrotation
							End Site
							{
								OFFSET 0.000000 32.263779 0.000000
							}
						}
						JOINT HairA
						{
							OFFSET -7.081100 24.428299 23.196600
							CHANNELS 3 Xrotation Yrotation Zrotation
							End Site
							{
								OFFSET 0.000000 32.263779 0.000000
							}
						}
						JOINT Hat
						{
							OFFSET 16.728800 15.048294 -15.439601
							CHANNELS 3 Xrotation Yrotation Zrotation
							End Site
							{
								OFFSET 0.000000 32.263779 0.000000
							}
						}
					}
				}
				JOINT LeftShoulder
				{
					OFFSET 6.197800 13.665199 -4.064700
					CHANNELS 3 Xrotation Yrotation Zrotation
					JOINT LeftArm
					{
						OFFSET 7.778100 -0.187103 -1.709300
						CHANNELS 3 Xrotation Yrotation Zrotation
						JOINT LeftForeArm
						{
							OFFSET 22.049376 0.000000 0.000000
							CHANNELS 3 Xrotation Yrotation Zrotation
							JOINT LeftHand
							{
								OFFSET 23.009392 0.000000 0.000000
								CHANNELS 3 Xrotation Yrotation Zrotation
								JOINT LeftHandThumb1
								{
									OFFSET 3.507191 -2.063065 3.133727
									CHANNELS 3 Xrotation Yrotation Zrotation
									JOINT LeftHandThumb2
									{
										OFFSET 3.101337 -1.790558 1.790558
										CHANNELS 3 Xrotation Yrotation Zrotation
										JOINT LeftHandThumb3
										{
											OFFSET 3.058640 -1.765907 1.765906
											CHANNELS 3 Xrotation Yrotation Zrotation
											End Site
											{
												OFFSET -0.415260 3.926476 -0.049563
											}
										}
									}
								}
								JOINT LeftHandIndex1
								{
									OFFSET 11.334419 -0.901459 3.706815
									CHANNELS 3 Xrotation Yrotation Zrotation
									JOINT LeftHandIndex2
									{
										OFFSET 3.283112 0.000000 0.000000
										CHANNELS 3 Xrotation Yrotation Zrotation
										JOINT LeftHandIndex3
										{
											OFFSET 3.323853 0.000000 0.000000
											CHANNELS 3 Xrotation Yrotation Zrotation
											End Site
											{
												OFFSET -1.135597 3.097809 0.402452
											}
										}
									}
								}
								JOINT LeftHandMiddle1
								{
									OFFSET 11.335861 0.000000 0.000000
									CHANNELS 3 Xrotation Yrotation Zrotation
									JOINT LeftHandMiddle2
									{
										OFFSET 3.410492 0.000000 0.000000
										CHANNELS 3 Xrotation Yrotation Zrotation
										JOINT LeftHandMiddle3
										{
											OFFSET 3.312172 0.000000 0.000000
											CHANNELS 3 Xrotation Yrotation Zrotation
											End Site
											{
												OFFSET -1.150200 3.080154 0.400270
											}
										}
									}
								}
								JOINT LeftHandRing1
								{
									OFFSET 11.514786 -0.013176 -3.003090
									CHANNELS 3 Xrotation Yrotation Zrotation
									JOINT LeftHandRing2
									{
										OFFSET 3.053307 0.000000 0.000000
										CHANNELS 3 Xrotation Yrotation Zrotation
										JOINT LeftHandRing3
										{
											OFFSET 3.295807 0.000000 0.000000
											CHANNELS 3 Xrotation Yrotation Zrotation
											End Site
											{
												OFFSET -1.281006 3.013344 0.375733
											}
										}
									}
								}
								JOINT LeftHandPinky1
								{
									OFFSET 10.518692 -0.960396 -5.730441
									CHANNELS 3 Xrotation Yrotation Zrotation
									JOINT LeftHandPinky2
									{
										OFFSET 2.861649 0.000000 0.000000
										CHANNELS 3 Xrotation Yrotation Zrotation
										JOINT LeftHandPinky3
										{
											OFFSET 2.863380 0.000000 0.000000
											CHANNELS 3 Xrotation Yrotation Zrotation
											End Site
											{
												OFFSET -0.843597 2.711159 0.369971
											}
										}
									}
								}
							}
							JOINT LSleeve
							{
								OFFSET 6.676277 -0.344902 -1.011730
								CHANNELS 3 Xrotation Yrotation Zrotation
								End Site
								{
									OFFSET 0.000000 14.885353 0.000000
								}
							}
						}
					}
				}
				JOINT RightShoulder
				{
					OFFSET -6.197800 13.665199 -4.064700
					CHANNELS 3 Xrotation Yrotation Zrotation
					JOINT RightArm
					{
						OFFSET -7.778100 -0.187103 -1.709300
						CHANNELS 3 Xrotation Yrotation Zrotation
						JOINT RightForeArm
						{
							OFFSET -22.049376 0.000000 0.000000
							CHANNELS 3 Xrotation Yrotation Zrotation
							JOINT RightHand
							{
								OFFSET -23.009392 0.000000 0.000000
								CHANNELS 3 Xrotation Yrotation Zrotation
								JOINT RightHandThumb1
								{
									OFFSET -3.507191 -2.063065 3.133727
									CHANNELS 3 Xrotation Yrotation Zrotation
									JOINT RightHandThumb2
									{
										OFFSET -3.101337 -1.790558 1.790558
										CHANNELS 3 Xrotation Yrotation Zrotation
										JOINT RightHandThumb3
										{
											OFFSET -3.058640 -1.765907 1.765906
											CHANNELS 3 Xrotation Yrotation Zrotation
											End Site
											{
												OFFSET 0.415260 3.926476 -0.049563
											}
										}
									}
								}
								JOINT RightHandIndex1
								{
									OFFSET -11.334419 -0.901459 3.706815
									CHANNELS 3 Xrotation Yrotation Zrotation
									JOINT RightHandIndex2
									{
										OFFSET -3.283112 0.000000 0.000000
										CHANNELS 3 Xrotation Yrotation Zrotation
										JOINT RightHandIndex3
										{
											OFFSET -3.323853 0.000000 0.000000
											CHANNELS 3 Xrotation Yrotation Zrotation
											End Site
											{
												OFFSET 1.135597 3.097809 0.402452
											}
										}
									}
								}
								JOINT RightHandMiddle1
								{
									OFFSET -11.335861 0.000000 0.000000
									CHANNELS 3 Xrotation Yrotation Zrotation
									JOINT RightHandMiddle2
									{
										OFFSET -3.410492 0.000000 0.000000
										CHANNELS 3 Xrotation Yrotation Zrotation
										JOINT RightHandMiddle3
										{
											OFFSET -3.312172 0.000000 0.000000
											CHANNELS 3 Xrotation Yrotation Zrotation
											End Site
											{
												OFFSET 1.150200 3.080154 0.400270
											}
										}
									}
								}
								JOINT RightHandRing1
								{
									OFFSET -11.514786 -0.013176 -3.003090
									CHANNELS 3 Xrotation Yrotation Zrotation
									JOINT RightHandRing2
									{
										OFFSET -3.053307 0.000000 0.000000
										CHANNELS 3 Xrotation Yrotation Zrotation
										JOINT RightHandRing3
										{
											OFFSET -3.295807 0.000000 0.000000
											CHANNELS 3 Xrotation Yrotation Zrotation
											End Site
											{
												OFFSET 1.281006 3.013344 0.375733
											}
										}
									}
								}
								JOINT RightHandPinky1
								{
									OFFSET -10.518692 -0.960396 -5.730441
									CHANNELS 3 Xrotation Yrotation Zrotation
									JOINT RightHandPinky2
									{
										OFFSET -2.861649 0.000000 0.000000
										CHANNELS 3 Xrotation Yrotation Zrotation
										JOINT RightHandPinky3
										{
											OFFSET -2.863380 0.000000 0.000000
											CHANNELS 3 Xrotation Yrotation Zrotation
											End Site
											{
												OFFSET 0.843597 2.711159 0.369971
											}
										}
									}
								}
							}
							JOINT RSleeve
							{
								OFFSET -6.676277 -0.344902 -1.011730
								CHANNELS 3 Xrotation Yrotation Zrotation
								End Site
								{
									OFFSET 0.000000 14.885353 0.000000
								}
							}
						}
					}
				}
				JOINT Backpack
				{
					OFFSET 0.000000 -2.471497 36.677502
					CHANNELS 3 Xrotation Yrotation Zrotation
					End Site
					{
						OFFSET 0.000000 20.427315 0.000000
					}
				}
				JOINT Hood
				{
					OFFSET 0.000000 18.754097 -10.431000
					CHANNELS 3 Xrotation Yrotation Zrotation
					JOINT Hood1
					{
						OFFSET 0.000000 -5.011002 -7.685901
						CHANNELS 3 Xrotation Yrotation Zrotation
						End Site
						{
							OFFSET 0.000000 9.175140 0.000000
						}
					}
				}
				JOINT LHoodieString
				{
					OFFSET 5.250500 16.397697 3.089900
					CHANNELS 3 Xrotation Yrotation Zrotation
					JOINT LHoodieString1
					{
						OFFSET 0.257700 -6.364304 3.694600
						CHANNELS 3 Xrotation Yrotation Zrotation
						JOINT LHoodieString2
						{
							OFFSET 0.000000 -9.643799 2.679100
							CHANNELS 3 Xrotation Yrotation Zrotation
							End Site
							{
								OFFSET 0.000000 10.009018 0.000000
							}
						}
					}
				}
				JOINT RHoodieString
				{
					OFFSET -5.250500 16.397697 3.089900
					CHANNELS 3 Xrotation Yrotation Zrotation
					JOINT RHoodieString1
					{
						OFFSET -0.257700 -6.364304 3.694600
						CHANNELS 3 Xrotation Yrotation Zrotation
						JOINT RHoodieString2
						{
							OFFSET 0.000000 -9.643799 2.679100
							CHANNELS 3 Xrotation Yrotation Zrotation
							End Site
							{
								OFFSET 0.000000 10.009018 0.000000
							}
						}
					}
				}
			}
			JOINT LBackpack_Strap
			{
				OFFSET 15.223200 -7.719803 -6.610900
				CHANNELS 3 Xrotation Yrotation Zrotation
				End Site
				{
					OFFSET 0.000000 16.040596 0.000000
				}
			}
			JOINT RBackpack_Strap
			{
				OFFSET -15.223000 -7.719803 -6.610900
				CHANNELS 3 Xrotation Yrotation Zrotation
				End Site
				{
					OFFSET 0.000000 16.040596 0.000000
				}
			}
		}
	}
	JOINT BoyFacialAnim_Joint
	{
		OFFSET 1.000000 -82.208099 -1.550900
		CHANNELS 3 Xrotation Yrotation Zrotation
		End Site
		{
			OFFSET 0.000000 30.012791 0.000000
		}
	}
}
MOTION
Frames: 4
Frame Time: 0.016667
0.018763 82.451035 0.246075 -3.753365 -5.223247 -3.509088 -0.000000 0.000000 0.000000 -11.794302 14.473442 10.861212 13.105607 1.996022 4.177049 1.435934 0.532000 -7.636398 0.000000 -0.000001 0.000000 0.000000 -0.000001 0.000000 0.000000 0.000000 0.000000 1.330372 -10.344084 3.344313 5.908902 -9.742033 -3.276661 -2.955792 -1.630716 3.121106 0.000000 -0.000002 0.000000 0.000000 -0.000002 0.000000 -0.000000 0.000000 -0.000000 3.302666 1.540383 2.485659 1.151563 0.341256 1.563088 1.124399 0.369601 1.558065 5.626311 -0.076130 0.454683 -7.563349 1.377077 -0.080250 -0.000000 -0.000000 0.000000 -0.000000 -0.000000 0.000000 -0.000000 -0.000000 0.000000 1.046818 -17.441243 -12.316049 3.916269 -19.989257 -69.765232 -0.000002 -1.459368 0.000002 -33.230421 -1.364820 -6.186614 -0.663003 2.160314 4.832487 11.845383 25.425958 17.060298 0.000001 0.000001 0.000001 0.019866 -0.969578 -7.593528 0.267776 1.752585 -17.372578 0.000000 0.000000 -0.000002 -0.076306 2.665779 -15.696849 0.268782 1.755802 -17.405526 -0.000001 0.000001 0.000000 0.136915 3.641771 -21.133526 0.386300 2.093953 -20.903102 0.000001 0.000002 -0.000002 0.917897 5.560942 -27.127211 0.268794 1.755856 -17.405950 0.000001 -0.000000 -0.000000 -0.000001 -0.000000 0.000000 1.209147 15.345166 14.705933 13.158861 27.555118 58.785157 0.000008 6.693738 0.000007 -20.179107 -0.514096 6.782796 -1.665251 -0.174479 -4.219035 12.710979 -29.825322 -16.130926 -0.000001 -0.000002 0.000003 0.037226 1.273353 6.824666 0.213723 -1.396033 17.407007 -0.000002 -0.000000 0.000004 -0.136227 -2.205101 14.998904 0.214451 -1.398356 17.436884 -0.000001 -0.000001 0.000001 0.030617 -3.075762 20.451039 0.308444 -1.668284 20.948537 -0.000001 0.000000 0.000000 0.756740 -4.881332 26.474358 0.214456 -1.398391 17.437220 0.000001 -0.000001 0.000000 -0.000001 -0.000000 0.000001 -0.000000 -0.000000 0.000000 -0.000000 -0.000000 0.000000 -0.000000 -0.000000 0.000000 -0.000000 -0.000000 0.000000 -0.000000 -0.000000 0.000000 -0.000000 -0.000000 0.000000 -0.000000 -0.000000 0.000000 -0.000000 -0.000000 0.000000 -0.000000 -0.000000 0.000000 -0.000000 0.000000 -0.000000 -0.000000 0.000000 -0.000000 -0.000000 0.000000 0.000000 
0.023869 82.447800 0.237128 -3.774878 -5.369096 -3.545795 0.000000 -0.000000 0.000000 -11.813138 14.476914 10.928799 13.210492 2.127026 4.148712 1.359166 0.531942 -7.625446 -0.000000 0.000000 -0.000000 -0.000000 0.000000 -0.000000 -0.000000 -0.000000 -0.000001 1.326530 -10.346883 3.399196 5.915981 -9.384276 -3.324185 -2.927834 -1.842025 3.112301 0.000000 -0.000000 0.000000 0.000000 -0.000000 0.000000 0.000000 -0.000003 0.000000 3.302592 1.540314 2.488425 1.151563 0.341255 1.563088 1.124399 0.369602 1.558065 5.641320 -0.076130 0.444040 -7.562831 1.382774 -0.108852 -0.000000 -0.000000 0.000000 -0.000000 -0.000000 0.000000 -0.000000 -0.000000 0.000000 1.048150 -17.435434 -12.315647 3.889505 -20.129821 -69.771004 0.000003 -1.500349 -0.000005 -33.176473 -1.403258 -6.179750 -0.731336 2.210472 4.906265 11.849537 25.426127 17.047000 0.000005 0.000000 -0.000000 0.037643 -0.954841 -7.569174 0.267775 1.752590 -17.372578 -0.000000 0.000000 -0.000002 -0.085751 2.628828 -15.661573 0.268444 1.754723 -17.394444 -0.000002 0.000002 -0.000001 0.132383 3.630373 -21.141425 0.386297 2.093952 -20.903128 -0.000001 -0.000000 -0.000002 0.910063 5.545729 -27.128188 0.268799 1.755852 -17.405993 -0.000002 0.000000 -0.000000 0.000004 -0.000000 -0.000000 1.208451 15.358334 14.695763 13.135314 27.547095 58.785136 -0.000004 6.665734 0.000003 -20.179218 -0.509186 6.769485 -1.578893 0.146354 -3.612007 12.359166 -29.465935 -16.752472 -0.000000 -0.000002 0.000000 0.071394 1.294369 6.594601 0.207548 -1.376195 17.151850 0.000000 0.000000 0.000002 -0.135839 -2.183629 14.745357 0.208856 -1.380423 17.206145 0.000003 -0.000001 0.000001 0.029734 -3.067573 20.320431 0.308031 -1.667215 20.934470 -0.000001 -0.000000 0.000000 0.766599 -4.905930 26.265059 0.214452 -1.398375 17.437242 -0.000001 0.000000 -0.000002 0.000002 -0.000001 0.000000 0.000000 -0.000000 -0.000000 0.000000 -0.000000 -0.000000 0.000000 -0.000000 -0.000000 0.000000 -0.000000 -0.000000 0.000000 -0.000000 0.000000 0.000000 -0.000000 0.000000 0.000000 -0.000000 -0.000000 0.000000 -0.000000 0.000000 0.000000 -0.000000 0.000000 0.000000 -0.000000 0.000000 0.000000 -0.000000 0.000000 0.000000 -0.000000 0.000000 
0.028279 82.442848 0.229634 -3.798004 -5.520286 -3.580840 0.000000 -0.000000 0.000000 -11.833645 14.480749 10.997114 13.327843 2.262910 4.119699 1.271761 0.532169 -7.616742 -0.000000 0.000001 -0.000000 -0.000000 0.000001 -0.000000 0.000000 0.000001 0.000000 1.306851 -10.343348 3.448428 5.957258 -9.043149 -3.370061 -2.917428 -2.042962 3.106352 0.000000 0.000000 0.000000 0.000000 0.000000 0.000000 -0.000000 0.000002 -0.000000 3.302561 1.540239 2.489567 1.151564 0.341254 1.563088 1.124399 0.369603 1.558065 5.658004 -0.073427 0.433888 -7.562016 1.396771 -0.134893 -0.000000 -0.000000 -0.000000 -0.000000 -0.000000 -0.000000 -0.000000 -0.000000 -0.000000 1.049205 -17.430817 -12.315331 3.861907 -20.202545 -69.781331 0.000006 -1.523123 -0.000001 -33.149558 -1.438204 -6.183290 -0.802505 2.237497 4.968541 11.855480 25.426375 17.027954 0.000001 0.000002 0.000002 0.044154 -0.951274 -7.556533 0.267775 1.752589 -17.372576 -0.000001 0.000000 -0.000003 -0.094902 2.594730 -15.647837 0.268339 1.754386 -17.390995 0.000001 0.000001 -0.000001 0.130834 3.627159 -21.159286 0.386297 2.093949 -20.903108 -0.000002 -0.000001 -0.000002 0.906110 5.538016 -27.130999 0.268796 1.755857 -17.405947 0.000002 0.000000 0.000002 0.000003 0.000000 0.000001 1.206564 15.367489 14.694095 13.125059 27.554849 58.770759 -0.000004 6.622059 0.000003 -20.182844 -0.523826 6.785110 -1.413003 0.635816 -2.930305 11.971240 -29.040182 -17.421506 -0.000003 -0.000003 0.000001 0.104996 1.310485 6.427171 0.200363 -1.352757 16.850808 -0.000001 -0.000001 -0.000002 -0.135435 -2.165790 14.534672 0.201542 -1.356609 16.900289 -0.000000 -0.000001 0.000001 0.033635 -3.072507 20.193239 0.307448 -1.665705 20.914584 -0.000002 -0.000002 -0.000004 0.776742 -4.930047 26.118712 0.214819 -1.399548 17.452330 -0.000000 -0.000001 -0.000002 0.000001 -0.000000 -0.000001 0.000000 0.000000 -0.000000 0.000000 0.000000 -0.000000 0.000000 0.000000 -0.000000 0.000000 0.000000 -0.000000 0.000000 0.000000 -0.000000 0.000000 0.000000 -0.000000 0.000000 0.000000 -0.000000 0.000000 0.000000 -0.000000 0.000000 0.000000 -0.000000 0.000000 -0.000000 -0.000000 0.000000 -0.000000 -0.000000 0.000000 -0.000000 0.000000 
0.032154 82.437134 0.223762 -3.822485 -5.676645 -3.616514 0.000000 -0.000000 -0.000000 -11.853882 14.485785 11.068112 13.451897 2.402331 4.089764 1.177847 0.532396 -7.610399 -0.000000 -0.000000 -0.000000 -0.000000 -0.000000 0.000000 -0.000000 0.000000 -0.000000 1.282788 -10.339925 3.496085 6.012627 -8.694259 -3.413860 -2.914801 -2.245113 3.099804 0.000000 -0.000000 0.000000 0.000000 -0.000000 0.000000 0.000000 -0.000002 0.000000 3.302528 1.540150 2.490828 1.151564 0.341256 1.563089 1.124399 0.369601 1.558065 5.675496 -0.070797 0.424323 -7.560890 1.416646 -0.159048 -0.000000 0.000000 0.000000 -0.000000 0.000000 0.000000 -0.000000 0.000000 0.000000 1.050084 -17.426980 -12.315070 3.834563 -20.228952 -69.793933 0.000001 -1.533925 -0.000004 -33.143281 -1.469032 -6.193450 -0.859823 2.255364 5.016257 11.860769 25.426583 17.011018 0.000003 0.000000 0.000001 0.045883 -0.951695 -7.554057 0.267773 1.752589 -17.372576 -0.000001 -0.000001 -0.000004 -0.102330 2.568137 -15.649418 0.268290 1.754229 -17.389383 0.000002 0.000001 -0.000003 0.131299 3.629442 -21.184117 0.386299 2.093950 -20.903109 -0.000001 0.000000 -0.000002 0.904507 5.534708 -27.140457 0.268798 1.755854 -17.405969 -0.000001 -0.000001 0.000001 -0.000001 0.000000 0.000000 1.203739 15.373917 14.698712 13.129137 27.577806 58.738076 0.000011 6.568093 0.000008 -20.190188 -0.555374 6.822974 -1.186849 1.249709 -2.178570 11.554287 -28.561295 -18.150372 -0.000001 0.000003 0.000002 0.135004 1.320356 6.337461 0.192942 -1.327971 16.533014 0.000000 0.000001 0.000000 -0.135121 -2.153228 14.386330 0.193480 -1.329765 16.555970 -0.000001 -0.000001 0.000001 0.040899 -3.088787 20.111062 0.307197 -1.665018 20.905577 -0.000002 -0.000001 0.000000 0.784881 -4.944849 26.073429 0.215504 -1.401715 17.480068 -0.000002 0.000000 0.000002 0.000001 -0.000000 -0.000001 -0.000000 0.000000 -0.000000 -0.000000 0.000000 -0.000000 -0.000000 0.000000 -0.000000 -0.000000 0.000000 -0.000000 -0.000000 0.000000 -0.000000 -0.000000 0.000000 0.000000 -0.000000 0.000000 -0.000000 -0.000000 0.000000 -0.000000 -0.000000 0.000000 0.000000 0.000000 0.000000 -0.000000 0.000000 0.000000 -0.000000 0.000000 -0.000000 -0.000000 
